<svg width="49" height="48" viewBox="0 0 49 48" fill="none" xmlns="http://www.w3.org/2000/svg">
<path d="M18.9757 14.4L16.5757 28.8H10.1101V43.2H38.9101V28.8H32.4445L30.0445 14.4H18.9757ZM19.7101 2.4V9.6H29.3101V2.4C29.3101 1.76348 29.5629 1.15303 30.013 0.702944C30.4631 0.252856 31.0735 0 31.7101 0C32.3466 0 32.957 0.252856 33.4071 0.702944C33.8572 1.15303 34.1101 1.76348 34.1101 2.4V9.6L36.5101 24H38.9101C40.1831 24 41.404 24.5057 42.3042 25.4059C43.2043 26.3061 43.7101 27.527 43.7101 28.8V43.2C43.7101 44.473 43.2043 45.6939 42.3042 46.5941C41.404 47.4943 40.1831 48 38.9101 48H10.1101C8.83702 48 7.61612 47.4943 6.71595 46.5941C5.81577 45.6939 5.31006 44.473 5.31006 43.2V28.8C5.31006 27.527 5.81577 26.3061 6.71595 25.4059C7.61612 24.5057 8.83702 24 10.1101 24H12.5101L14.9101 9.6V2.4C14.9101 1.76348 15.1629 1.15303 15.613 0.702944C16.0631 0.252856 16.6735 0 17.3101 0C17.9466 0 18.557 0.252856 19.0071 0.702944C19.4572 1.15303 19.7101 1.76348 19.7101 2.4ZM14.9101 33.6H34.1101V38.4H14.9101V33.6Z" fill="white"/>
</svg>
