<svg width="16" height="16" viewBox="0 0 16 16" fill="none" xmlns="http://www.w3.org/2000/svg">
<g clip-path="url(#clip0)">
<path d="M4.27635 14.7871C4.64356 15.1543 5.23558 15.1543 5.60279 14.7871L11.8303 8.55958C11.8998 8.49025 11.9549 8.4079 11.9925 8.31724C12.0301 8.22658 12.0495 8.1294 12.0495 8.03125C12.0495 7.9331 12.0301 7.83592 11.9925 7.74526C11.9549 7.6546 11.8998 7.57225 11.8303 7.50292L5.60279 1.2754C5.23558 0.908198 4.64356 0.908198 4.27635 1.2754C3.90914 1.64261 3.90914 2.23464 4.27635 2.60184L9.70201 8.035L4.26885 13.4682C3.90914 13.8279 3.90914 14.4274 4.27635 14.7871V14.7871Z" fill="white"/>
</g>
<defs>
<clipPath id="clip0">
<rect width="15" height="15" fill="white" transform="translate(0.5 0.5)"/>
</clipPath>
</defs>
</svg>
