<svg width="16" height="16" viewBox="0 0 16 16" fill="none" xmlns="http://www.w3.org/2000/svg">
<path d="M4.91991 14.0067C5.24658 14.3334 5.77325 14.3334 6.09991 14.0067L11.6399 8.4667C11.7017 8.40502 11.7507 8.33176 11.7842 8.25112C11.8177 8.17047 11.8349 8.08401 11.8349 7.9967C11.8349 7.90939 11.8177 7.82293 11.7842 7.74228C11.7507 7.66163 11.7017 7.58838 11.6399 7.5267L6.09991 1.9867C5.77325 1.66003 5.24658 1.66003 4.91991 1.9867C4.59325 2.31337 4.59325 2.84003 4.91991 3.1667L9.74658 8.00003L4.91325 12.8334C4.59325 13.1534 4.59325 13.6867 4.91991 14.0067Z" fill="white"/>
</svg>
